<svg width="54" height="54" fill="none" xmlns="http://www.w3.org/2000/svg"><path d="M39.003 5.683l.652-.758-.23-.198-.3-.037-.122.993zm8.749 7.522l.992.122.066-.531-.406-.35-.652.76zm-6.954 30.38l-25.41-3.12-.243 1.984 25.409 3.12.244-1.985zm-27.325-5.572l3.9-31.762-1.985-.244-3.9 31.762 1.985.244zm6.351-33.677l19.057 2.34.244-1.986-19.057-2.34-.244 1.986zm26.935 8.747L43.25 41.67l1.985.243 3.51-28.585-1.985-.244zm-8.408-6.642l8.749 7.522 1.304-1.516-8.749-7.522-1.304 1.516zM15.39 40.464a2.2 2.2 0 01-1.916-2.451l-1.985-.244a4.2 4.2 0 003.657 4.68l.244-1.985zm25.165 5.105a4.2 4.2 0 004.68-3.657l-1.985-.243a2.2 2.2 0 01-2.451 1.915l-.244 1.985zM17.373 6.251a2.2 2.2 0 012.451-1.915l.244-1.986a4.2 4.2 0 00-4.68 3.657l1.985.244zM8.255 11.58l-3.9 31.761 1.986.244 3.9-31.762-1.986-.243zm-.243 36.442l25.41 3.12.243-1.986-25.409-3.12-.244 1.986zm4.68-38.114l3.176.39.244-1.985-3.176-.39-.244 1.985zm25.41 37.577l.39-3.176-1.985-.244-.39 3.176 1.985.244zm-4.68 3.657a4.2 4.2 0 004.68-3.657l-1.985-.244a2.2 2.2 0 01-2.452 1.916l-.243 1.985zm-29.066-7.8a4.2 4.2 0 003.656 4.68l.244-1.985a2.2 2.2 0 01-1.915-2.452l-1.985-.244zm5.885-31.519a2.2 2.2 0 012.451-1.915l.244-1.985a4.2 4.2 0 00-4.68 3.657l1.985.243z" fill="#fff"/><path d="M24.57 23.96l4.475 4.58 9.655-8.89" stroke="#fff" stroke-width="1.5" stroke-linecap="round"/></svg>