<svg width="160" height="160" fill="none" xmlns="http://www.w3.org/2000/svg"><path d="M55.055 76.412H21.14L3.637 97.261h33.915l17.503-20.849zm62.932-5.842c13.285-13.285 13.285-34.837 0-48.121-13.285-13.285-34.836-13.285-48.121 0-13.285 13.284-13.285 34.836 0 48.12 13.285 13.286 34.836 13.286 48.121 0zM75.005 27.588a26.612 26.612 0 0118.91-7.83c7.151 0 13.866 2.788 18.909 7.83 10.424 10.424 10.424 27.394 0 37.818-5.043 5.042-11.758 7.83-18.91 7.83-7.151 0-13.866-2.788-18.909-7.83-10.424-10.424-10.424-27.394 0-37.818z" fill="#939393"/><path d="M93.914 68.412c5.843 0 11.346-2.279 15.491-6.424 8.534-8.533 8.534-22.424 0-30.982-4.145-4.145-9.624-6.424-15.49-6.424-5.843 0-11.346 2.279-15.492 6.424-8.533 8.533-8.533 22.424 0 30.982 4.146 4.145 9.649 6.424 15.491 6.424zM81.526 37.527a2.414 2.414 0 010-3.418 2.414 2.414 0 013.419 0l8.97 8.97 8.969-8.97a2.414 2.414 0 013.418 0 2.413 2.413 0 010 3.418l-8.97 8.97 8.97 8.97a2.413 2.413 0 01-1.721 4.12c-.63 0-1.236-.242-1.721-.702l-8.97-8.97-8.97 8.97a2.38 2.38 0 01-1.72.703 2.487 2.487 0 01-1.722-.703 2.414 2.414 0 010-3.418l8.97-8.97-8.921-8.97zm-62.811 64.582v45.406h36.34V83.952l-15.25 18.157h-21.09zm96.025-22.254l-.364-.364a38.468 38.468 0 01-20.485 5.867c-9.164 0-17.842-3.152-24.8-8.946h-9.212l17.503 20.824h49.745l-8.8-8.8a12.45 12.45 0 01-3.587-8.582zm39.419 16.242l-21.721-21.721c-1.891-1.891-4.533-2.546-6.982-2.012l-1.357-1.358c-.849 1.018-1.722 2.037-2.691 2.982a44.744 44.744 0 01-2.982 2.69l1.357 1.358a7.509 7.509 0 002.012 6.982l21.722 21.721c2.933 2.934 7.709 2.934 10.642 0 2.933-2.933 2.933-7.709 0-10.642z" fill="#939393"/><path d="M59.902 83.952v63.563h64.534v-45.406H75.151L59.902 83.952zm27.564 55.006H68.46a2.432 2.432 0 01-2.424-2.425 2.431 2.431 0 012.424-2.424h19.006a2.431 2.431 0 012.424 2.424 2.432 2.432 0 01-2.424 2.425zm2.424-11.903a2.431 2.431 0 01-2.424 2.424H68.46a2.431 2.431 0 01-2.424-2.424 2.432 2.432 0 012.424-2.425h19.006a2.432 2.432 0 012.424 2.425z" fill="#939393"/></svg>