<svg width="20" height="20" fill="none" xmlns="http://www.w3.org/2000/svg"><path d="M1 4.75l-.385-.923A1 1 0 000 4.75h1zM10 19l-.385.923a1 1 0 00.77 0L10 19zm9-14.25h1a1 1 0 00-.615-.923L19 4.75zM5.5 6.625l-.385.923.385-.923zm3.73-5.304L8.847.397l.385.924zM1.616 15.506l-.384.924.384-.924zM2 14.583V4.75H0v9.833h2zM9 8.5V19h2V8.5H9zm1.385 9.577L2 14.583l-.77 1.847 8.385 3.493.77-1.846zm0 1.846l8.384-3.493L18 14.583l-8.385 3.494.77 1.846zM20 14.583V4.75h-2v9.833h2zM18.615 3.827l-9 3.75.77 1.846 9-3.75-.77-1.846zM8.846.397l-8.23 3.43.769 1.846 8.23-3.43L8.846.398zM.616 5.673l4.5 1.875.769-1.846-4.5-1.875-.77 1.846zm4.5 1.875l4.5 1.875.769-1.846-4.5-1.875-.77 1.846zm14.269-3.721l-4.5-1.875-.77 1.846 4.5 1.875.77-1.846zm-4.5-1.875L11.154.397l-.77 1.847 3.731 1.554.77-1.846zm-9 5.596l9-3.75-.77-1.846-9 3.75.77 1.846zm3.73-5.304a1 1 0 01.77 0l.769-1.847a3 3 0 00-2.308 0l.77 1.847zm9.154 14.185A2 2 0 0020 14.584h-2l.77 1.847zM0 14.584a2 2 0 001.23 1.847L2 14.583H0z" fill="#EEA501"/></svg>