<svg width="54" height="54" viewBox="0 0 54 54" fill="none" xmlns="http://www.w3.org/2000/svg">
<path d="M39.0033 5.68293L39.6553 4.92469L39.4257 4.72729L39.1252 4.69039L39.0033 5.68293ZM47.7518 13.2052L48.7443 13.327L48.8095 12.7958L48.4037 12.4469L47.7518 13.2052ZM40.7977 43.5841L15.3885 40.4643L15.1448 42.4494L40.5539 45.5692L40.7977 43.5841ZM13.473 38.0126L17.3728 6.25108L15.3877 6.00734L11.4879 37.7688L13.473 38.0126ZM19.8245 4.33559L38.8814 6.67548L39.1252 4.69039L20.0683 2.3505L19.8245 4.33559ZM46.7592 13.0833L43.2494 41.6686L45.2345 41.9124L48.7443 13.327L46.7592 13.0833ZM38.3513 6.44118L47.0998 13.9634L48.4037 12.4469L39.6553 4.92469L38.3513 6.44118ZM15.3885 40.4643C14.1825 40.3162 13.3249 39.2185 13.473 38.0126L11.4879 37.7688C11.2052 40.0711 12.8425 42.1667 15.1448 42.4494L15.3885 40.4643ZM40.5539 45.5692C42.8563 45.8519 44.9518 44.2147 45.2345 41.9124L43.2494 41.6686C43.1013 42.8746 42.0037 43.7322 40.7977 43.5841L40.5539 45.5692ZM17.3728 6.25108C17.5209 5.04511 18.6186 4.18751 19.8245 4.33559L20.0683 2.3505C17.766 2.06781 15.6704 3.70503 15.3877 6.00734L17.3728 6.25108ZM8.25548 11.5797L4.35566 43.3411L6.34075 43.5849L10.2406 11.8234L8.25548 11.5797ZM8.0125 48.0217L33.4217 51.1415L33.6654 49.1565L8.25624 46.0366L8.0125 48.0217ZM12.6923 9.90792L15.8684 10.2979L16.1122 8.31281L12.936 7.92283L12.6923 9.90792ZM38.1022 47.4847L38.4922 44.3086L36.5071 44.0648L36.1171 47.241L38.1022 47.4847ZM33.4217 51.1415C35.724 51.4242 37.8195 49.787 38.1022 47.4847L36.1171 47.241C35.9691 48.4469 34.8714 49.3045 33.6654 49.1565L33.4217 51.1415ZM4.35566 43.3411C4.07297 45.6435 5.7102 47.739 8.0125 48.0217L8.25624 46.0366C7.05027 45.8885 6.19268 44.7909 6.34075 43.5849L4.35566 43.3411ZM10.2406 11.8234C10.3886 10.6174 11.4863 9.75984 12.6923 9.90792L12.936 7.92283C10.6337 7.64014 8.53816 9.27736 8.25548 11.5797L10.2406 11.8234Z" fill="white"/>
<path d="M24.5696 23.9599L29.0448 28.5394L38.7002 19.6499" stroke="white" stroke-width="1.5" stroke-linecap="round"/>
</svg>
