<svg width="160" height="160" viewBox="0 0 160 160" fill="none" xmlns="http://www.w3.org/2000/svg">
<path d="M55.0549 76.4121H21.1397L3.63672 97.2606H37.5519L55.0549 76.4121Z" fill="#939393"/>
<path d="M117.987 70.5697C131.272 57.2849 131.272 35.7333 117.987 22.4485C104.702 9.16365 83.1508 9.16365 69.866 22.4485C56.5811 35.7333 56.5811 57.2849 69.866 70.5697C83.1508 83.8546 104.702 83.8546 117.987 70.5697ZM75.0054 27.5879C80.0478 22.5455 86.7872 19.7576 93.9145 19.7576C101.066 19.7576 107.781 22.5455 112.824 27.5879C123.248 38.0121 123.248 54.9818 112.824 65.4061C107.781 70.4485 101.066 73.2364 93.9145 73.2364C86.763 73.2364 80.0478 70.4485 75.0054 65.4061C64.5811 54.9818 64.5811 38.0121 75.0054 27.5879Z" fill="#939393"/>
<path d="M93.9144 68.4121C99.7568 68.4121 105.26 66.1333 109.405 61.9879C117.939 53.4545 117.939 39.5636 109.405 31.006C105.26 26.8606 99.781 24.5818 93.9144 24.5818C88.0719 24.5818 82.5689 26.8606 78.4234 31.006C69.8901 39.5394 69.8901 53.4303 78.4234 61.9879C82.5689 66.1333 88.0719 68.4121 93.9144 68.4121ZM81.5265 37.5272C80.581 36.5818 80.581 35.0545 81.5265 34.1091C82.4719 33.1636 83.9992 33.1636 84.9447 34.1091L93.9144 43.0788L102.884 34.1091C103.83 33.1636 105.357 33.1636 106.302 34.1091C107.248 35.0545 107.248 36.5818 106.302 37.5272L97.3325 46.4969L106.302 55.4666C107.248 56.4121 107.248 57.9394 106.302 58.8848C105.817 59.3697 105.211 59.5879 104.581 59.5879C103.951 59.5879 103.345 59.3454 102.86 58.8848L93.8901 49.9151L84.9204 58.8848C84.4356 59.3697 83.8295 59.5879 83.1992 59.5879C82.5689 59.5879 81.9628 59.3454 81.478 58.8848C80.5325 57.9394 80.5325 56.4121 81.478 55.4666L90.4477 46.4969L81.5265 37.5272Z" fill="#939393"/>
<path d="M18.7148 102.109V147.515H55.0542V83.9517L39.8058 102.109H18.7148Z" fill="#939393"/>
<path d="M114.74 79.8545L114.376 79.4909C108.291 83.297 101.261 85.3576 93.891 85.3576C84.7274 85.3576 76.0486 82.206 69.091 76.4121H59.8789L77.3819 97.2364H127.127L118.327 88.4363C116.049 86.1333 114.788 83.0545 114.74 79.8545Z" fill="#939393"/>
<path d="M154.159 96.097L132.438 74.3758C130.547 72.4849 127.905 71.8303 125.456 72.3637L124.099 71.0061C123.25 72.0243 122.377 73.0425 121.408 73.9879C120.462 74.9334 119.444 75.8303 118.426 76.6788L119.783 78.0364C119.226 80.4606 119.905 83.1273 121.795 85.0182L143.517 106.739C146.45 109.673 151.226 109.673 154.159 106.739C157.092 103.806 157.092 99.0303 154.159 96.097Z" fill="#939393"/>
<path d="M59.9023 83.9517V147.515H124.436V102.109H75.1508L59.9023 83.9517ZM87.466 138.958H68.4599C67.1266 138.958 66.0357 137.867 66.0357 136.533C66.0357 135.2 67.1266 134.109 68.4599 134.109H87.466C88.7993 134.109 89.8902 135.2 89.8902 136.533C89.8902 137.867 88.7993 138.958 87.466 138.958ZM89.8902 127.055C89.8902 128.388 88.7993 129.479 87.466 129.479H68.4599C67.1266 129.479 66.0357 128.388 66.0357 127.055C66.0357 125.721 67.1266 124.63 68.4599 124.63H87.466C88.7993 124.63 89.8902 125.721 89.8902 127.055Z" fill="#939393"/>
</svg>
