<svg width="274" height="62" viewBox="0 0 274 62" fill="none" xmlns="http://www.w3.org/2000/svg">
<g opacity="0.5">
<path d="M69.7095 9H62.6293V23.5223H62.5321L57.1944 9H49.6283L56.2746 24.3461L49 43H56.8576L62.5321 28.4777H62.6293V43H69.7095V28.4777H69.8067L75.4813 43H83.3388L76.0643 24.3461L82.7105 9H75.1444L69.8067 23.5223H69.7095V9ZM102.163 9H84.8935V43H98.769L103.906 38.0446V27.6994L98.769 22.744H91.9737V15.4082H102.163V9ZM91.9737 29.1587H96.8256V36.6047H91.9737V29.1587ZM107.883 9V43H114.05L119.627 25.4876H119.725V43H126.805V9H120.677L115.1 26.5124H115.002V9H107.883ZM160.418 13.9554L155.281 9H142.183V43H149.263V31.6299H155.281L160.418 26.681V13.9554ZM153.338 15.4082V25.2217H149.263V15.4082H153.338ZM182.054 13.9554L176.911 9H168.185L163.042 13.9554V38.0446L168.185 43H176.911L182.054 38.0446V13.9554ZM174.974 15.4082V36.6047H170.122V15.4082H174.974ZM205.147 13.9554L200.004 9H191.285L186.103 13.9554V38.0446L191.285 43H200.017L205.16 38.0446V28.4777H198.061V36.6047H193.228V15.4082H198.074V22.0175H205.147V13.9554ZM228.137 13.9554L223.026 9H214.268L209.125 13.9554V38.0446L214.268 43H223.026L228.17 38.0446V28.4777H221.083V36.6047H216.231V15.4082H221.083V22.0175H228.163V13.9554H228.137ZM232.095 9V43H238.255L243.839 25.4876H243.93V43H251.017V9H244.856L239.279 26.5124H239.221V9H232.095ZM255.091 9V43H261.245L266.823 25.4876H266.92V43H274V9H267.84L262.262 26.5124H262.165V9H255.091Z" fill="white"/>
<path d="M107.725 56.7168C107.323 57.1303 107.071 57.6764 107.012 58.262C106.953 58.8475 107.091 59.4363 107.402 59.9277C107.713 60.4191 108.179 60.7827 108.719 60.9565C109.259 61.1302 109.84 61.1033 110.363 60.8804C110.886 60.6574 111.319 60.2523 111.587 59.734C111.855 59.2158 111.942 58.6167 111.834 58.0388C111.725 57.461 111.428 56.9403 110.992 56.5657C110.556 56.191 110.008 55.9856 109.443 55.9846C109.124 55.9774 108.807 56.0388 108.511 56.1647C108.216 56.2907 107.948 56.4786 107.725 56.7168ZM106.99 60.9748C106.676 60.6508 106.427 60.2653 106.257 59.8405C106.087 59.4158 106 58.9602 106 58.5C106 58.0398 106.087 57.5842 106.257 57.1595C106.427 56.7347 106.676 56.3492 106.99 56.0252C107.653 55.376 108.53 55.0145 109.44 55.0145C110.35 55.0145 111.227 55.376 111.89 56.0252C112.204 56.3492 112.453 56.7347 112.623 57.1595C112.793 57.5842 112.88 58.0398 112.88 58.5C112.88 58.9602 112.793 59.4158 112.623 59.8405C112.453 60.2653 112.204 60.6508 111.89 60.9748C111.227 61.624 110.35 61.9854 109.44 61.9854C108.53 61.9854 107.653 61.624 106.99 60.9748ZM118.704 55.015C119.025 55.0144 119.345 55.06 119.654 55.1506C119.919 55.2218 120.173 55.3314 120.409 55.4761C120.604 55.6117 120.78 55.7337 120.93 55.8625C121.045 55.9627 121.154 56.0714 121.255 56.188L121.353 56.3236L120.702 57.0016C120.679 56.9654 120.653 56.9314 120.624 56.8999C120.553 56.8087 120.475 56.7247 120.389 56.649C120.267 56.5296 120.131 56.4249 119.986 56.3371C119.811 56.2368 119.625 56.1572 119.433 56.0998C119.197 56.0227 118.951 55.9838 118.704 55.9846C118.386 55.9828 118.072 56.0466 117.778 56.1724C117.484 56.2982 117.217 56.4834 116.993 56.7173C116.768 56.9512 116.59 57.2293 116.47 57.5353C116.349 57.8413 116.288 58.1692 116.29 58.5C116.285 58.8319 116.345 59.1614 116.464 59.469C116.584 59.7766 116.762 60.0562 116.987 60.2912C117.212 60.5262 117.479 60.712 117.774 60.8375C118.069 60.9631 118.385 61.0259 118.704 61.0222C118.951 61.0252 119.197 60.9886 119.433 60.9137C119.638 60.8546 119.833 60.7632 120.012 60.6425C120.153 60.5506 120.288 60.4487 120.415 60.3374C120.508 60.2561 120.595 60.1677 120.676 60.073L120.747 59.951L121.398 60.629L121.287 60.7781C121.235 60.8369 121.125 60.9454 120.956 61.1036C120.785 61.255 120.602 61.3911 120.409 61.5104C120.172 61.653 119.918 61.7625 119.654 61.8358C119.063 62.012 118.439 62.0246 117.842 61.8724C117.245 61.7202 116.696 61.4085 116.25 60.968C115.937 60.644 115.688 60.2585 115.518 59.8337C115.348 59.409 115.261 58.9534 115.261 58.4932C115.261 58.0331 115.348 57.5775 115.518 57.1527C115.688 56.7279 115.937 56.3425 116.25 56.0185C116.572 55.6874 116.955 55.4273 117.375 55.2537C117.796 55.0801 118.245 54.9966 118.697 55.0082L118.704 55.015ZM129.253 55.1099V61.8901H128.231V58.9339H125.023V61.8901H124.001V55.1099H125.023V57.9711H128.231V55.1099H129.253ZM133.756 56.7168C133.354 57.1303 133.102 57.6764 133.043 58.262C132.984 58.8475 133.122 59.4363 133.433 59.9277C133.745 60.4191 134.21 60.7827 134.75 60.9565C135.29 61.1302 135.871 61.1033 136.394 60.8804C136.917 60.6574 137.35 60.2523 137.618 59.734C137.886 59.2158 137.974 58.6167 137.865 58.0388C137.757 57.461 137.459 56.9403 137.023 56.5657C136.587 56.191 136.04 55.9856 135.475 55.9846C135.155 55.9774 134.838 56.0388 134.542 56.1647C134.247 56.2907 133.979 56.4786 133.756 56.7168ZM133.021 60.9748C132.707 60.6508 132.458 60.2653 132.289 59.8405C132.119 59.4158 132.031 58.9602 132.031 58.5C132.031 58.0398 132.119 57.5842 132.289 57.1595C132.458 56.7347 132.707 56.3492 133.021 56.0252C133.685 55.376 134.561 55.0145 135.471 55.0145C136.382 55.0145 137.258 55.376 137.921 56.0252C138.235 56.3492 138.484 56.7347 138.654 57.1595C138.824 57.5842 138.911 58.0398 138.911 58.5C138.911 58.9602 138.824 59.4158 138.654 59.8405C138.484 60.2653 138.235 60.6508 137.921 60.9748C137.258 61.624 136.382 61.9854 135.471 61.9854C134.561 61.9854 133.685 61.624 133.021 60.9748ZM144.481 61.8901H141.722V55.1099H144.39C144.889 55.1047 145.371 55.2988 145.737 55.6523C145.91 55.8074 146.049 55.9987 146.145 56.2137C146.242 56.4287 146.294 56.6626 146.297 56.8999C146.297 57.1602 146.242 57.4174 146.134 57.6525C146.058 57.8285 145.95 57.9875 145.815 58.1203L145.646 58.2627L145.75 58.3237C145.789 58.3237 145.874 58.4186 145.985 58.5203C146.097 58.615 146.198 58.7244 146.284 58.8458C146.378 58.9914 146.455 59.1485 146.512 59.3136C146.585 59.5034 146.622 59.7059 146.622 59.9103C146.623 60.1739 146.569 60.4346 146.466 60.6753C146.363 60.916 146.212 61.1312 146.024 61.307C145.618 61.6997 145.08 61.9093 144.527 61.8901H144.481ZM142.718 60.968H144.481C144.623 60.9717 144.763 60.9455 144.895 60.891C145.026 60.8365 145.146 60.7548 145.246 60.6509C145.346 60.547 145.426 60.423 145.479 60.2864C145.532 60.1498 145.558 60.0034 145.555 59.856C145.558 59.7087 145.532 59.5623 145.479 59.4256C145.426 59.289 145.346 59.165 145.246 59.0611C145.146 58.9572 145.026 58.8756 144.895 58.8211C144.763 58.7666 144.623 58.7404 144.481 58.7441H142.718V60.968ZM144.345 56.032H142.718V57.8762H144.39C144.506 57.8762 144.622 57.8524 144.729 57.806C144.836 57.7597 144.934 57.6918 145.016 57.6061C145.098 57.5205 145.163 57.4189 145.208 57.307C145.252 57.1951 145.275 57.0752 145.275 56.9541C145.275 56.833 145.252 56.7131 145.208 56.6013C145.163 56.4894 145.098 56.3877 145.016 56.3021C144.934 56.2165 144.836 56.1486 144.729 56.1022C144.622 56.0559 144.506 56.032 144.39 56.032H144.345ZM148.425 61.8901L151.119 55.1099H152.2L154.894 61.8901H153.827L153.124 60.1001H150.247L149.544 61.8901H148.425ZM151.633 56.3236L150.566 59.1306H152.701L151.633 56.3236ZM162.508 55.1099V61.8901H161.486V58.9339H158.278V61.8901H157.256V55.1099H158.278V57.9711H161.486V55.1099H162.508ZM172.159 61.8901H169.374V55.1099H172.022C172.521 55.1047 173.003 55.2988 173.369 55.6523C173.541 55.8077 173.679 55.9992 173.775 56.2143C173.87 56.4293 173.92 56.663 173.923 56.8999C173.925 57.1597 173.872 57.4169 173.766 57.6525C173.69 57.8285 173.582 57.9875 173.448 58.1203L173.278 58.2627L173.376 58.3237L173.617 58.5203C173.73 58.615 173.83 58.7244 173.916 58.8458C174.008 58.9929 174.084 59.1498 174.144 59.3136C174.217 59.5034 174.254 59.7059 174.255 59.9103C174.255 60.1746 174.202 60.436 174.097 60.6769C173.993 60.9179 173.84 61.1327 173.649 61.307C173.45 61.5019 173.216 61.6537 172.96 61.7538C172.704 61.8539 172.432 61.9002 172.159 61.8901ZM170.421 60.968H172.185C172.326 60.9707 172.467 60.9439 172.598 60.889C172.729 60.8342 172.848 60.7525 172.948 60.6488C173.048 60.5451 173.127 60.4215 173.181 60.2853C173.234 60.1491 173.261 60.0031 173.259 59.856C173.262 59.7087 173.236 59.5623 173.182 59.4256C173.129 59.289 173.05 59.165 172.95 59.0611C172.85 58.9572 172.73 58.8756 172.599 58.8211C172.467 58.7666 172.326 58.7404 172.185 58.7441H170.421V60.968ZM172.048 56.032H170.421V57.8762H172.048C172.283 57.8762 172.508 57.7791 172.674 57.6061C172.84 57.4332 172.933 57.1987 172.933 56.9541C172.933 56.7096 172.84 56.475 172.674 56.3021C172.508 56.1292 172.283 56.032 172.048 56.032ZM184.537 61.8901H180.216C180.21 61.5026 180.27 61.1172 180.391 60.751C180.5 60.4379 180.663 60.1483 180.873 59.8967C181.071 59.668 181.289 59.4591 181.524 59.2729C181.758 59.0831 181.986 58.9136 182.22 58.7576C182.454 58.6017 182.669 58.4458 182.871 58.2966C183.059 58.1493 183.22 57.9679 183.346 57.761C183.467 57.5576 183.53 57.3224 183.528 57.0829C183.535 56.9325 183.512 56.7822 183.459 56.6419C183.406 56.5017 183.326 56.3747 183.222 56.2693C182.982 56.0603 182.676 55.9537 182.363 55.971C182.191 55.9701 182.021 56.0047 181.862 56.0727C181.726 56.1281 181.602 56.2111 181.498 56.3168C181.413 56.4117 181.342 56.4999 181.27 56.5948C181.218 56.6734 181.175 56.7575 181.14 56.8456L181.107 56.9406L180.274 56.5541C180.286 56.496 180.304 56.4392 180.326 56.3846C180.378 56.2545 180.441 56.1297 180.515 56.0117C180.618 55.8413 180.741 55.6842 180.879 55.5439C181.058 55.3824 181.263 55.2561 181.485 55.1709C181.764 55.0564 182.063 54.9989 182.363 55.0014C182.944 54.9801 183.509 55.1967 183.938 55.6049C184.134 55.7923 184.29 56.021 184.396 56.2757C184.501 56.5305 184.554 56.8056 184.55 57.0829C184.55 57.3804 184.488 57.6743 184.368 57.944C184.258 58.1996 184.101 58.43 183.906 58.622C183.717 58.7983 183.509 58.9814 183.255 59.1712C183.001 59.3611 182.78 59.5306 182.552 59.6865C182.319 59.8501 182.101 60.0362 181.901 60.2425C181.695 60.4352 181.523 60.6648 181.394 60.9205H184.556V61.8901H184.537ZM187.745 61.0358C187.229 60.2997 186.951 59.4116 186.951 58.5C186.951 57.5884 187.229 56.7003 187.745 55.9642C187.983 55.6644 188.281 55.4231 188.618 55.2573C188.956 55.0916 189.324 55.0057 189.698 55.0057C190.071 55.0057 190.439 55.0916 190.777 55.2573C191.114 55.4231 191.412 55.6644 191.65 55.9642C192.166 56.7003 192.444 57.5884 192.444 58.5C192.444 59.4116 192.166 60.2997 191.65 61.0358C191.412 61.3356 191.114 61.577 190.777 61.7427C190.439 61.9084 190.071 61.9943 189.698 61.9943C189.324 61.9943 188.956 61.9084 188.618 61.7427C188.281 61.577 187.983 61.3356 187.745 61.0358ZM190.908 60.3578C191.235 59.8019 191.409 59.1624 191.409 58.5102C191.409 57.858 191.235 57.2185 190.908 56.6626C190.773 56.4556 190.592 56.2862 190.38 56.1691C190.168 56.052 189.931 55.9908 189.691 55.9908C189.451 55.9908 189.215 56.052 189.002 56.1691C188.79 56.2862 188.609 56.4556 188.474 56.6626C188.147 57.2185 187.973 57.858 187.973 58.5102C187.973 59.1624 188.147 59.8019 188.474 60.3578C188.609 60.5647 188.79 60.7341 189.002 60.8512C189.215 60.9684 189.451 61.0296 189.691 61.0296C189.931 61.0296 190.168 60.9684 190.38 60.8512C190.592 60.7341 190.773 60.5647 190.908 60.3578ZM195.639 61.0358C195.123 60.2997 194.845 59.4116 194.845 58.5C194.845 57.5884 195.123 56.7003 195.639 55.9642C195.877 55.6655 196.176 55.4251 196.513 55.2601C196.851 55.0951 197.219 55.0096 197.592 55.0096C197.964 55.0096 198.332 55.0951 198.67 55.2601C199.007 55.4251 199.306 55.6655 199.544 55.9642C200.06 56.7003 200.338 57.5884 200.338 58.5C200.338 59.4116 200.06 60.2997 199.544 61.0358C199.306 61.3345 199.007 61.5749 198.67 61.7399C198.332 61.9049 197.964 61.9904 197.592 61.9904C197.219 61.9904 196.851 61.9049 196.513 61.7399C196.176 61.5749 195.877 61.3345 195.639 61.0358ZM198.802 60.3578C199.134 59.8035 199.31 59.1634 199.31 58.5102C199.31 57.857 199.134 57.2169 198.802 56.6626C198.668 56.4556 198.487 56.2861 198.276 56.1689C198.064 56.0517 197.828 55.9904 197.588 55.9904C197.349 55.9904 197.113 56.0517 196.901 56.1689C196.689 56.2861 196.509 56.4556 196.375 56.6626C196.043 57.2169 195.867 57.857 195.867 58.5102C195.867 59.1634 196.043 59.8035 196.375 60.3578C196.509 60.5647 196.689 60.7342 196.901 60.8514C197.113 60.9686 197.349 61.0299 197.588 61.0299C197.828 61.0299 198.064 60.9686 198.276 60.8514C198.487 60.7342 198.668 60.5647 198.802 60.3578ZM205.896 59.0017C205.647 58.7595 205.318 58.6281 204.978 58.6356C204.636 58.6263 204.304 58.7578 204.054 59.0017C203.936 59.1047 203.841 59.2333 203.776 59.3785C203.71 59.5238 203.677 59.6821 203.676 59.8425C203.676 60.0038 203.71 60.1632 203.775 60.3095C203.841 60.4559 203.936 60.5857 204.054 60.69C204.304 60.9339 204.636 61.0655 204.978 61.0561C205.318 61.0637 205.647 60.9323 205.896 60.69C206.015 60.5861 206.11 60.4565 206.177 60.3101C206.243 60.1638 206.278 60.0043 206.279 59.8425C206.278 59.6817 206.243 59.5231 206.177 59.3779C206.11 59.2327 206.014 59.1043 205.896 59.0017ZM205.713 56.1541C205.514 55.9616 205.25 55.8592 204.978 55.8693C204.843 55.8636 204.709 55.8858 204.583 55.9347C204.456 55.9836 204.341 56.0581 204.243 56.1541C204.151 56.2392 204.077 56.3436 204.026 56.4604C203.976 56.5773 203.95 56.7039 203.95 56.8321C203.949 56.9604 203.975 57.0873 204.025 57.2043C204.076 57.3213 204.15 57.4255 204.243 57.5101C204.341 57.6048 204.457 57.6781 204.583 57.7259C204.71 57.7736 204.844 57.7947 204.978 57.7881C205.112 57.7943 205.246 57.773 205.372 57.7253C205.498 57.6776 205.614 57.6045 205.713 57.5101C205.804 57.4241 205.876 57.3194 205.925 57.2026C205.975 57.0859 206 56.9596 206 56.8321C205.999 56.7046 205.973 56.5787 205.924 56.462C205.875 56.3454 205.803 56.2406 205.713 56.1541ZM203.611 55.571C203.987 55.2009 204.487 55.001 205.004 55.015C205.258 55.0076 205.511 55.053 205.747 55.1485C205.984 55.2439 206.201 55.3875 206.384 55.571C206.561 55.7307 206.704 55.9285 206.801 56.1508C206.899 56.3731 206.95 56.6147 206.95 56.8592C206.95 57.0171 206.93 57.1743 206.891 57.327C206.854 57.4587 206.799 57.5842 206.729 57.6999C206.668 57.7897 206.603 57.8757 206.533 57.9576C206.484 58.0178 206.427 58.0703 206.364 58.1135L206.305 58.1678L206.403 58.2424C206.483 58.308 206.559 58.3782 206.631 58.4525C206.718 58.5682 206.796 58.6906 206.865 58.8187C206.954 58.9662 207.029 59.1229 207.086 59.2865C207.151 59.4736 207.184 59.6708 207.184 59.8696C207.185 60.1544 207.128 60.4362 207.016 60.6959C206.904 60.9557 206.739 61.1872 206.533 61.3748C206.099 61.7945 205.524 62.0187 204.932 61.9986C204.641 62.0093 204.351 61.9597 204.078 61.8526C203.806 61.7456 203.556 61.5831 203.344 61.3748C203.138 61.188 202.972 60.9567 202.86 60.6968C202.748 60.4369 202.691 60.1546 202.694 59.8696C202.695 59.5559 202.774 59.2479 202.921 58.9746C203.041 58.7415 203.2 58.5325 203.39 58.3576L203.624 58.1813C203.559 58.1374 203.498 58.0874 203.442 58.0322C203.326 57.9019 203.228 57.756 203.149 57.5982C203.031 57.376 202.969 57.1266 202.967 56.8728C202.967 56.6283 203.018 56.3866 203.115 56.1643C203.213 55.942 203.356 55.7443 203.533 55.5845L203.611 55.571ZM211.87 61.8901V55.1099H216.054V56.1066H212.891V61.9172L211.87 61.8901ZM217.818 60.9205C217.875 60.9773 217.921 61.0457 217.952 61.1214C217.984 61.1972 218 61.2787 218 61.3612C217.997 61.5267 217.932 61.6844 217.819 61.8008C217.706 61.9172 217.554 61.9833 217.395 61.985C217.315 61.9854 217.236 61.9695 217.163 61.9381C217.089 61.9066 217.022 61.8604 216.965 61.8019C216.909 61.7443 216.865 61.6757 216.835 61.6C216.805 61.5243 216.789 61.4432 216.79 61.3612C216.789 61.2792 216.804 61.1978 216.834 61.122C216.864 61.0462 216.909 60.9777 216.965 60.9205C217.021 60.8608 217.087 60.8134 217.16 60.781C217.233 60.7485 217.312 60.7318 217.392 60.7318C217.471 60.7318 217.55 60.7485 217.623 60.781C217.696 60.8134 217.763 60.8608 217.818 60.9205Z" fill="white"/>
<path fill-rule="evenodd" clip-rule="evenodd" d="M0 43H7V27.4728L0 24V43Z" fill="white"/>
<path fill-rule="evenodd" clip-rule="evenodd" d="M10.4949 43H17V28.5338V27.3895V21.2649L0 12V19.2689L10.4949 24.9904V43Z" fill="white"/>
<path fill-rule="evenodd" clip-rule="evenodd" d="M20.4949 43H27V28.6376V27.5016V15.1919L10 6V13.2102L20.4949 18.8906V43Z" fill="white"/>
<path fill-rule="evenodd" clip-rule="evenodd" d="M31.491 43H38V28.6902V27.5583V9.16467L21 0V7.19025L31.491 12.8498V43Z" fill="white"/>
</g>
</svg>
