<svg width="48" height="48" viewBox="0 0 48 48" fill="none" xmlns="http://www.w3.org/2000/svg">
<path d="M20 4H28" stroke="#333333" stroke-width="2" stroke-linecap="round" stroke-linejoin="round"/>
<path d="M24 28V20" stroke="#333333" stroke-width="2" stroke-linecap="round" stroke-linejoin="round"/>
<path d="M8 26.0003C8.48999 22.1123 10.3906 18.5392 13.3413 15.9587C16.2921 13.3782 20.0878 11.9698 24.0085 12.0005C26.598 12.0032 29.1481 12.6338 31.4402 13.838C33.7323 15.0422 35.6979 16.7842 37.1684 18.9144C38.6389 21.0447 39.5703 23.4997 39.8829 26.0688C40.1955 28.638 39.8799 31.2445 38.9631 33.665C38.0463 36.0854 36.5557 38.2474 34.6192 39.9655C32.6826 41.6837 30.358 42.9067 27.8447 43.5296C25.3313 44.1526 22.7043 44.1568 20.1889 43.5421C17.6736 42.9273 15.345 41.7119 13.4029 40.0001L8 35.2001" stroke="#333333" stroke-width="2" stroke-linecap="round" stroke-linejoin="round"/>
<path d="M18 34H8V44" stroke="#333333" stroke-width="2" stroke-linecap="round" stroke-linejoin="round"/>
</svg>
