<svg width="42" height="42" viewBox="0 0 42 42" fill="none" xmlns="http://www.w3.org/2000/svg">
<path d="M29.75 21H12.25C10.317 21 8.75 22.567 8.75 24.5V28C8.75 29.933 10.317 31.5 12.25 31.5H29.75C31.683 31.5 33.25 29.933 33.25 28V24.5C33.25 22.567 31.683 21 29.75 21Z" stroke="#333333" stroke-width="2" stroke-linecap="round" stroke-linejoin="round"/>
<path d="M26.25 6.125H15.75C13.817 6.125 12.25 7.692 12.25 9.625V13.125C12.25 15.058 13.817 16.625 15.75 16.625H26.25C28.183 16.625 29.75 15.058 29.75 13.125V9.625C29.75 7.692 28.183 6.125 26.25 6.125Z" stroke="#333333" stroke-width="2" stroke-linecap="round" stroke-linejoin="round"/>
<path d="M3.5 35.875H38.5" stroke="#333333" stroke-width="2" stroke-linecap="round" stroke-linejoin="round"/>
</svg>
