<svg width="21" height="25" viewBox="0 0 21 25" fill="none" xmlns="http://www.w3.org/2000/svg">
<path d="M2.6 17.8V13.8M2.6 13.8V10.6H4.2C5.08366 10.6 5.8 11.3163 5.8 12.2C5.8 13.0837 5.08366 13.8 4.2 13.8H2.6ZM15.4 9.8V17.8M15.4 10.6H19.4M15.4 13.8H17.8M1 8.2V2.6C1 1.71634 1.71634 1 2.6 1H15.4L20.2 5.8V8.2M1 19.4V21.8C1 22.6837 1.71634 23.4 2.6 23.4H18.6C19.4837 23.4 20.2 22.6837 20.2 21.8V19.4M9 10.6V17H10.6C11.4837 17 12.2 16.2837 12.2 15.4V12.2C12.2 11.3163 11.4837 10.6 10.6 10.6H9Z" stroke="#333333" stroke-width="1.5" stroke-linejoin="round"/>
</svg>
