<svg width="20" height="20" viewBox="0 0 20 20" fill="none" xmlns="http://www.w3.org/2000/svg">
<path d="M1 4.75L0.615385 3.82692C0.242738 3.98219 0 4.3463 0 4.75H1ZM10 19L9.61538 19.9231C9.86154 20.0256 10.1385 20.0256 10.3846 19.9231L10 19ZM19 4.75H20C20 4.3463 19.7573 3.98219 19.3846 3.82692L19 4.75ZM5.5 6.625L5.11538 7.54808L5.5 6.625ZM9.23077 1.32051L8.84615 0.397436L9.23077 1.32051ZM1.61539 15.5064L1.23077 16.4295L1.61539 15.5064ZM2 14.5833V4.75H0V14.5833H2ZM9 8.5V19H11V8.5H9ZM10.3846 18.0769L2 14.5833L1.23077 16.4295L9.61538 19.9231L10.3846 18.0769ZM10.3846 19.9231L18.7692 16.4295L18 14.5833L9.61538 18.0769L10.3846 19.9231ZM20 14.5833V4.75H18V14.5833H20ZM18.6154 3.82692L9.61538 7.57692L10.3846 9.42308L19.3846 5.67308L18.6154 3.82692ZM8.84615 0.397436L0.615385 3.82692L1.38462 5.67308L9.61538 2.24359L8.84615 0.397436ZM0.615385 5.67308L5.11538 7.54808L5.88462 5.70192L1.38462 3.82692L0.615385 5.67308ZM5.11538 7.54808L9.61538 9.42308L10.3846 7.57692L5.88462 5.70192L5.11538 7.54808ZM19.3846 3.82692L14.8846 1.95192L14.1154 3.79808L18.6154 5.67308L19.3846 3.82692ZM14.8846 1.95192L11.1538 0.397436L10.3846 2.24359L14.1154 3.79808L14.8846 1.95192ZM5.88462 7.54808L14.8846 3.79808L14.1154 1.95192L5.11538 5.70192L5.88462 7.54808ZM9.61538 2.24359C9.86154 2.14103 10.1385 2.14103 10.3846 2.24359L11.1538 0.397436C10.4154 0.0897437 9.58462 0.0897435 8.84615 0.397436L9.61538 2.24359ZM18.7692 16.4295C19.5145 16.1189 20 15.3907 20 14.5833H18H18L18.7692 16.4295ZM0 14.5833C0 15.3907 0.485476 16.1189 1.23077 16.4295L2 14.5833H2H0Z" fill="#EEA501"/>
</svg>
