<svg width="20" height="20" viewBox="0 0 20 20" fill="none" xmlns="http://www.w3.org/2000/svg">
<path d="M16.9996 11.2001C16.9996 10.6478 16.5519 10.2001 15.9996 10.2001C15.4473 10.2001 14.9996 10.6478 14.9996 11.2001H16.9996ZM8.79961 5.0001C9.35189 5.0001 9.79961 4.55238 9.79961 4.0001C9.79961 3.44781 9.35189 3.0001 8.79961 3.0001V5.0001ZM8.79961 1.6001V0.600098C8.24732 0.600098 7.79961 1.04781 7.79961 1.6001L8.79961 1.6001ZM18.3996 11.2001V12.2001C18.9519 12.2001 19.3996 11.7524 19.3996 11.2001H18.3996ZM8.79961 11.2001H7.79961V12.2001H8.79961V11.2001ZM8.79961 19.4001C13.3283 19.4001 16.9996 15.7288 16.9996 11.2001H14.9996C14.9996 14.6243 12.2238 17.4001 8.79961 17.4001V19.4001ZM0.599609 11.2001C0.599609 15.7288 4.27087 19.4001 8.79961 19.4001V17.4001C5.37544 17.4001 2.59961 14.6243 2.59961 11.2001H0.599609ZM2.59961 11.2001C2.59961 7.77593 5.37544 5.0001 8.79961 5.0001V3.0001C4.27087 3.0001 0.599609 6.67136 0.599609 11.2001H2.59961ZM8.79961 2.6001C13.5493 2.6001 17.3996 6.45045 17.3996 11.2001H19.3996C19.3996 5.34588 14.6538 0.600098 8.79961 0.600098V2.6001ZM7.79961 1.6001V11.2001H9.79961V1.6001H7.79961ZM8.79961 12.2001H18.3996V10.2001H8.79961V12.2001Z" fill="#EEA501"/>
</svg>
